<?xml version="1.0" encoding="UTF-8" ?>
<!DOCTYPE svg PUBLIC "-//W3C//DTD SVG 1.1//EN" "http://www.w3.org/Graphics/SVG/1.1/DTD/svg11.dtd">
<svg width="115pt" height="144pt" viewBox="0 0 115 144" version="1.1" xmlns="http://www.w3.org/2000/svg">
<g id="#334e5bff">
<path fill="#334e5b" opacity="1.00" d=" M 39.91 5.98 C 42.79 1.47 48.79 -0.72 53.87 1.04 C 58.97 2.56 62.52 7.72 62.31 13.02 C 62.35 23.92 62.34 34.83 62.29 45.74 C 65.53 45.05 69.03 44.32 72.19 45.75 C 75.10 46.77 77.01 49.28 78.81 51.63 C 82.08 50.52 85.71 49.56 89.08 50.86 C 92.31 51.77 94.49 54.43 96.42 56.99 C 99.19 56.10 102.11 55.07 105.05 55.77 C 110.26 56.61 114.38 61.12 115.00 66.32 L 115.00 103.84 C 114.23 117.79 106.10 131.05 93.90 137.89 C 83.82 143.71 71.29 145.13 60.18 141.63 C 48.84 138.17 39.05 129.60 34.51 118.60 C 27.16 102.94 19.83 87.27 12.37 71.67 C 10.20 67.99 9.47 63.34 11.47 59.42 C 14.04 53.18 22.24 50.61 28.08 53.79 C 33.69 56.53 35.05 63.16 37.86 68.18 C 37.88 50.47 37.90 32.76 37.85 15.05 C 37.85 11.94 38.01 8.59 39.91 5.98 M 48.48 7.58 C 46.21 8.28 44.63 10.60 44.78 12.97 C 44.70 36.64 44.84 60.32 44.72 83.98 C 45.15 87.58 39.69 88.98 38.24 85.71 C 34.82 78.78 31.66 71.73 28.34 64.75 C 27.33 62.45 25.84 59.82 22.99 59.72 C 19.13 59.12 16.00 63.76 17.90 67.13 C 26.07 84.57 34.30 101.99 42.52 119.41 C 49.51 131.93 64.94 138.87 78.99 136.07 C 95.59 133.45 108.75 117.79 108.78 101.04 C 108.73 90.01 108.83 78.98 108.74 67.96 C 109.05 64.14 104.50 61.07 101.12 62.97 C 96.91 64.39 99.47 71.86 94.07 71.33 C 87.87 69.64 93.73 61.11 88.75 58.13 C 85.56 55.55 80.50 58.11 80.36 62.12 C 80.55 65.41 76.31 67.41 74.10 64.84 C 71.95 61.63 74.52 57.09 72.12 53.91 C 70.38 51.41 66.38 51.00 64.25 53.24 C 61.91 55.15 63.35 59.51 60.05 60.53 C 57.72 61.28 55.21 59.31 55.47 56.88 C 55.36 42.28 55.51 27.67 55.42 13.06 C 55.80 9.44 51.90 6.33 48.48 7.58 Z" />
</g>
<g id="#19a1ddff">
<path fill="#19a1dd" opacity="1.00" d=" M 11.35 5.29 C 13.36 2.99 17.58 5.08 17.12 8.08 C 16.45 10.74 13.80 12.24 12.10 14.22 C 18.30 14.36 24.53 13.95 30.71 14.40 C 33.94 15.09 34.05 20.17 30.91 21.10 C 24.67 21.65 18.37 21.16 12.10 21.33 C 13.68 22.93 15.42 24.40 16.74 26.24 C 18.36 28.88 14.88 32.67 12.19 30.89 C 8.53 27.90 5.44 24.27 2.02 21.03 C 0.39 19.68 -0.60 17.12 1.17 15.45 C 4.49 11.99 7.88 8.59 11.35 5.29 Z" />
<path fill="#19a1dd" opacity="1.00" d=" M 83.43 8.54 C 82.48 5.56 86.53 2.95 88.84 5.09 C 92.33 8.28 95.61 11.72 98.93 15.09 C 100.59 16.52 100.25 19.24 98.64 20.57 C 95.26 23.89 92.03 27.36 88.53 30.55 C 85.99 32.99 81.77 29.30 83.39 26.35 C 84.71 24.47 86.49 22.98 88.09 21.34 C 82.04 21.21 75.98 21.53 69.93 21.20 C 66.55 20.68 66.29 15.31 69.57 14.41 C 75.79 13.92 82.05 14.39 88.28 14.20 C 86.65 12.35 84.37 10.88 83.43 8.54 Z" />
</g>
</svg>
